<svg width="532" height="238" viewBox="0 0 532 238" fill="none" xmlns="http://www.w3.org/2000/svg">
<path fill-rule="evenodd" clip-rule="evenodd" d="M75.7824 236.824H64.334V76.5888C64.334 74.5858 65.9558 72.9326 67.9911 72.9326H72.1571C74.1606 72.9326 75.8142 74.554 75.8142 76.5888V236.824H75.7824Z" fill="#473198"/>
<path fill-rule="evenodd" clip-rule="evenodd" d="M283.985 236.824H272.536V76.5888C272.536 74.5858 274.158 72.9326 276.193 72.9326H280.359C282.363 72.9326 284.016 74.554 284.016 76.5888V236.824H283.985Z" fill="#473198"/>
<rect x="44.2676" y="90.3232" width="246.905" height="27.914" fill="#E6B40B"/>
<path fill-rule="evenodd" clip-rule="evenodd" d="M83.0651 90.3232H62.6805L44.2676 117.411V118.269H64.048L83.0651 90.3232Z" fill="white"/>
<path fill-rule="evenodd" clip-rule="evenodd" d="M106.085 118.269L125.071 90.3232H104.718L85.7324 118.269H106.085Z" fill="white"/>
<path fill-rule="evenodd" clip-rule="evenodd" d="M148.095 118.269L167.113 90.3232H146.728L127.743 118.269H148.095Z" fill="white"/>
<path fill-rule="evenodd" clip-rule="evenodd" d="M190.139 118.269L209.125 90.3232H188.772L169.787 118.269H190.139Z" fill="white"/>
<path fill-rule="evenodd" clip-rule="evenodd" d="M232.148 118.269L251.165 90.3232H230.781L211.795 118.269H232.148Z" fill="white"/>
<path fill-rule="evenodd" clip-rule="evenodd" d="M274.189 118.269L291.171 93.28V90.3232H272.821L253.836 118.269H274.189Z" fill="white"/>
<rect x="44.2676" y="139.824" width="246.905" height="27.914" fill="#E6B40B"/>
<path fill-rule="evenodd" clip-rule="evenodd" d="M83.0651 139.824H62.6805L44.2676 166.912V167.738H64.048L83.0651 139.824Z" fill="white"/>
<path fill-rule="evenodd" clip-rule="evenodd" d="M106.085 167.738L125.071 139.824H104.718L85.7324 167.738H106.085Z" fill="white"/>
<path fill-rule="evenodd" clip-rule="evenodd" d="M148.095 167.738L167.113 139.824H146.728L127.743 167.738H148.095Z" fill="white"/>
<path fill-rule="evenodd" clip-rule="evenodd" d="M190.139 167.738L209.125 139.824H188.772L169.787 167.738H190.139Z" fill="white"/>
<path fill-rule="evenodd" clip-rule="evenodd" d="M232.148 167.738L251.165 139.824H230.781L211.795 167.738H232.148Z" fill="white"/>
<path fill-rule="evenodd" clip-rule="evenodd" d="M274.189 167.738L291.171 142.749V139.824H272.821L253.836 167.738H274.189Z" fill="white"/>
<path fill-rule="evenodd" clip-rule="evenodd" d="M462.866 2.03467H438.824V2.03467H135.154C126.217 2.03467 118.999 9.2834 118.999 18.1853V192.759C118.999 201.693 126.249 208.91 135.154 208.91H438.856H447.378H462.866C471.166 208.91 477.876 202.201 477.876 193.903V17.0408C477.876 8.74292 471.166 2.03467 462.866 2.03467Z" fill="#473198"/>
<path fill-rule="evenodd" clip-rule="evenodd" d="M138.907 17.0727C141.453 17.0727 143.518 15.0087 143.518 12.4627C143.518 9.91672 141.453 7.85278 138.907 7.85278C136.36 7.85278 134.295 9.91672 134.295 12.4627C134.295 15.0087 136.36 17.0727 138.907 17.0727Z" fill="#E6B40B"/>
<path fill-rule="evenodd" clip-rule="evenodd" d="M156.908 17.0727C159.454 17.0727 161.519 15.0087 161.519 12.4627C161.519 9.91672 159.454 7.85278 156.908 7.85278C154.361 7.85278 152.296 9.91672 152.296 12.4627C152.296 15.0087 154.361 17.0727 156.908 17.0727Z" fill="#C6EBBE"/>
<path fill-rule="evenodd" clip-rule="evenodd" d="M174.877 17.0727C177.423 17.0727 179.488 15.0087 179.488 12.4627C179.488 9.91672 177.423 7.85278 174.877 7.85278C172.33 7.85278 170.266 9.91672 170.266 12.4627C170.266 15.0087 172.33 17.0727 174.877 17.0727Z" fill="white"/>
<path fill-rule="evenodd" clip-rule="evenodd" d="M353.693 22.9856L355.601 22.9869L355.473 209.324L353.565 209.322L353.693 22.9856Z" fill="white"/>
<path fill-rule="evenodd" clip-rule="evenodd" d="M463.535 22.1597C464.062 22.1597 464.489 22.5867 464.489 23.1134C464.489 23.6214 464.091 24.0366 463.591 24.0656L463.535 24.0672H119.032C118.505 24.0672 118.078 23.6402 118.078 23.1134C118.078 22.6055 118.475 22.1903 118.976 22.1613L119.032 22.1597H463.535Z" fill="white"/>
<path fill-rule="evenodd" clip-rule="evenodd" d="M393.857 72.0105H393.126C392.331 72.0105 391.727 71.3747 391.727 70.6116V68.5451C391.727 67.7503 392.363 67.1462 393.126 67.1462H393.857C394.652 67.1462 395.256 67.7821 395.256 68.5451V70.6116C395.288 71.3747 394.652 72.0105 393.857 72.0105Z" fill="#E6B40B"/>
<path fill-rule="evenodd" clip-rule="evenodd" d="M388.771 72.0103H367.432C366.542 72.0103 365.842 71.3109 365.842 70.4207V68.7039C365.842 67.8137 366.542 67.1143 367.432 67.1143H388.771C389.661 67.1143 390.361 67.8137 390.361 68.7039V70.4207C390.361 71.2791 389.63 72.0103 388.771 72.0103Z" fill="#473198"/>
<path fill-rule="evenodd" clip-rule="evenodd" d="M390.965 94.6788H367.4C366.51 94.6788 365.81 93.9793 365.81 93.0891V91.3723C365.81 90.4822 366.51 89.7827 367.4 89.7827H390.965C391.855 89.7827 392.555 90.4822 392.555 91.3723V93.0891C392.555 93.9793 391.855 94.6788 390.965 94.6788Z" fill="#473198"/>
<path fill-rule="evenodd" clip-rule="evenodd" d="M412.493 87.1439H374.172C373.282 87.1439 372.582 86.4444 372.582 85.5542V83.8374C372.582 82.9472 373.282 82.2478 374.172 82.2478H412.493C413.383 82.2478 414.083 82.9472 414.083 83.8374V85.5542C414.083 86.4126 413.351 87.1439 412.493 87.1439Z" fill="#E6B40B"/>
<path fill-rule="evenodd" clip-rule="evenodd" d="M405.785 60.6924H367.465C366.574 60.6924 365.875 59.993 365.875 59.1028V57.386C365.875 56.4958 366.574 55.7964 367.465 55.7964H405.785C406.675 55.7964 407.375 56.4958 407.375 57.386V59.1028C407.375 59.9612 406.675 60.6924 405.785 60.6924Z" fill="#C6EBBE"/>
<path fill-rule="evenodd" clip-rule="evenodd" d="M405.785 118.873H367.465C366.574 118.873 365.875 118.174 365.875 117.283V115.567C365.875 114.676 366.574 113.977 367.465 113.977H405.785C406.675 113.977 407.375 114.676 407.375 115.567V117.283C407.375 118.174 406.675 118.873 405.785 118.873Z" fill="#C6EBBE"/>
<path fill-rule="evenodd" clip-rule="evenodd" d="M437.204 87.1439H417.964C417.074 87.1439 416.374 86.4444 416.374 85.5542V83.8374C416.374 82.9472 417.074 82.2478 417.964 82.2478H437.204C438.094 82.2478 438.794 82.9472 438.794 83.8374V85.5542C438.794 86.4126 438.094 87.1439 437.204 87.1439Z" fill="#C6EBBE"/>
<path fill-rule="evenodd" clip-rule="evenodd" d="M444.964 79.5774H444.232C443.437 79.5774 442.833 78.9415 442.833 78.1785V76.112C442.833 75.3172 443.469 74.7131 444.232 74.7131H444.964C445.759 74.7131 446.363 75.349 446.363 76.112V78.1785C446.395 78.9415 445.759 79.5774 444.964 79.5774Z" fill="#473198"/>
<path fill-rule="evenodd" clip-rule="evenodd" d="M407.12 79.5772H367.4C366.51 79.5772 365.81 78.8778 365.81 77.9876V76.2708C365.81 75.3806 366.51 74.6812 367.4 74.6812H407.12C408.01 74.6812 408.71 75.3806 408.71 76.2708V77.9876C408.71 78.846 408.01 79.5772 407.12 79.5772Z" fill="#473198"/>
<path fill-rule="evenodd" clip-rule="evenodd" d="M419.81 72.0103H398.471C397.58 72.0103 396.881 71.3109 396.881 70.4207V68.7039C396.881 67.8137 397.58 67.1143 398.471 67.1143H419.81C420.7 67.1143 421.4 67.8137 421.4 68.7039V70.4207C421.4 71.2791 420.668 72.0103 419.81 72.0103Z" fill="#473198"/>
<path fill-rule="evenodd" clip-rule="evenodd" d="M439.302 79.5773H412.208C411.317 79.5773 410.618 78.8778 410.618 77.9876V76.239C410.618 75.3489 411.317 74.6494 412.208 74.6494H439.302C440.193 74.6494 440.892 75.3489 440.892 76.239V77.9876C440.892 78.8778 440.193 79.5773 439.302 79.5773Z" fill="#E6B40B"/>
<path fill-rule="evenodd" clip-rule="evenodd" d="M388.771 138.076H367.432C366.542 138.076 365.842 137.376 365.842 136.486V134.769C365.842 133.879 366.542 133.18 367.432 133.18H388.771C389.661 133.18 390.361 133.879 390.361 134.769V136.486C390.361 137.376 389.63 138.076 388.771 138.076Z" fill="#473198"/>
<path fill-rule="evenodd" clip-rule="evenodd" d="M390.965 160.776H367.4C366.51 160.776 365.81 160.076 365.81 159.186V157.469C365.81 156.579 366.51 155.88 367.4 155.88H390.965C391.855 155.88 392.555 156.579 392.555 157.469V159.186C392.555 160.044 391.855 160.776 390.965 160.776Z" fill="#473198"/>
<path fill-rule="evenodd" clip-rule="evenodd" d="M412.493 153.209H374.172C373.282 153.209 372.582 152.51 372.582 151.619V149.903C372.582 149.012 373.282 148.313 374.172 148.313H412.493C413.383 148.313 414.083 149.012 414.083 149.903V151.619C414.083 152.51 413.351 153.209 412.493 153.209Z" fill="#E6B40B"/>
<path fill-rule="evenodd" clip-rule="evenodd" d="M437.204 153.209H417.964C417.074 153.209 416.374 152.51 416.374 151.619V149.903C416.374 149.012 417.074 148.313 417.964 148.313H437.204C438.094 148.313 438.794 149.012 438.794 149.903V151.619C438.794 152.51 438.094 153.209 437.204 153.209Z" fill="#C6EBBE"/>
<path fill-rule="evenodd" clip-rule="evenodd" d="M444.964 145.674H444.232C443.437 145.674 442.833 145.038 442.833 144.275V142.209C442.833 141.414 443.469 140.81 444.232 140.81H444.964C445.759 140.81 446.363 141.446 446.363 142.209V144.275C446.395 145.038 445.759 145.674 444.964 145.674Z" fill="#473198"/>
<path fill-rule="evenodd" clip-rule="evenodd" d="M451.197 138.076H450.465C449.67 138.076 449.066 137.44 449.066 136.677V134.61C449.066 133.815 449.702 133.211 450.465 133.211H451.197C451.992 133.211 452.596 133.847 452.596 134.61V136.677C452.628 137.44 451.992 138.076 451.197 138.076Z" fill="#473198"/>
<path fill-rule="evenodd" clip-rule="evenodd" d="M407.12 145.643H367.4C366.51 145.643 365.81 144.943 365.81 144.053V142.336C365.81 141.446 366.51 140.747 367.4 140.747H407.12C408.01 140.747 408.71 141.446 408.71 142.336V144.053C408.71 144.943 408.01 145.643 407.12 145.643Z" fill="#473198"/>
<path fill-rule="evenodd" clip-rule="evenodd" d="M419.807 138.076H393.317C392.426 138.076 391.727 137.376 391.727 136.486V134.769C391.727 133.879 392.426 133.18 393.317 133.18H419.807C420.697 133.18 421.397 133.879 421.397 134.769V136.486C421.397 137.376 420.666 138.076 419.807 138.076Z" fill="#E6B40B"/>
<path fill-rule="evenodd" clip-rule="evenodd" d="M446.202 138.076H424.864C423.973 138.076 423.273 137.376 423.273 136.486V134.769C423.273 133.879 423.973 133.18 424.864 133.18H446.202C447.093 133.18 447.792 133.879 447.792 134.769V136.486C447.792 137.376 447.093 138.076 446.202 138.076Z" fill="#E6B40B"/>
<path fill-rule="evenodd" clip-rule="evenodd" d="M393.857 130.763H393.126C392.331 130.763 391.727 130.128 391.727 129.365V127.298C391.727 126.503 392.363 125.899 393.126 125.899H393.857C394.652 125.899 395.256 126.535 395.256 127.298V129.365C395.288 130.128 394.652 130.763 393.857 130.763Z" fill="#E6B40B"/>
<path fill-rule="evenodd" clip-rule="evenodd" d="M388.771 130.763H367.432C366.542 130.763 365.842 130.064 365.842 129.174V127.457C365.842 126.567 366.542 125.867 367.432 125.867H388.771C389.661 125.867 390.361 126.567 390.361 127.457V129.174C390.361 130.032 389.63 130.763 388.771 130.763Z" fill="#473198"/>
<path fill-rule="evenodd" clip-rule="evenodd" d="M419.81 130.763H398.471C397.58 130.763 396.881 130.064 396.881 129.174V127.457C396.881 126.567 397.58 125.867 398.471 125.867H419.81C420.7 125.867 421.4 126.567 421.4 127.457V129.174C421.4 130.032 420.668 130.763 419.81 130.763Z" fill="#473198"/>
<path fill-rule="evenodd" clip-rule="evenodd" d="M439.302 145.674H412.208C411.317 145.674 410.618 144.975 410.618 144.085V142.336C410.618 141.446 411.317 140.747 412.208 140.747H439.302C440.193 140.747 440.892 141.446 440.892 142.336V144.085C440.892 144.943 440.193 145.674 439.302 145.674Z" fill="#E6B40B"/>
<path fill-rule="evenodd" clip-rule="evenodd" d="M306.336 146.437H269.128C266.417 146.437 264.231 148.635 264.231 151.333V189.453C264.231 192.141 266.439 194.349 269.128 194.349H306.336C309.047 194.349 311.233 192.151 311.233 189.453V151.333C311.233 148.622 309.035 146.437 306.336 146.437ZM269.129 148.344H306.337C307.985 148.344 309.326 149.678 309.326 151.333V189.452C309.326 191.1 307.992 192.441 306.337 192.441H269.129C267.494 192.441 266.14 191.088 266.14 189.452V151.333C266.14 149.686 267.474 148.344 269.129 148.344Z" fill="white"/>
<path fill-rule="evenodd" clip-rule="evenodd" d="M254.756 152.732C255.283 152.732 255.71 153.159 255.71 153.686C255.71 154.194 255.313 154.609 254.812 154.638L254.756 154.64H225.626C225.1 154.64 224.672 154.213 224.672 153.686C224.672 153.178 225.07 152.763 225.57 152.734L225.626 152.732H254.756Z" fill="white"/>
<path fill-rule="evenodd" clip-rule="evenodd" d="M254.947 165.544C255.474 165.544 255.901 165.971 255.901 166.498C255.901 167.006 255.504 167.421 255.003 167.45L254.947 167.452H169.879C169.352 167.452 168.925 167.025 168.925 166.498C168.925 165.99 169.322 165.575 169.823 165.546L169.879 165.544H254.947Z" fill="white"/>
<path fill-rule="evenodd" clip-rule="evenodd" d="M254.947 173.175C255.474 173.175 255.901 173.602 255.901 174.129C255.901 174.637 255.504 175.052 255.003 175.081L254.947 175.082H169.879C169.352 175.082 168.925 174.655 168.925 174.129C168.925 173.621 169.322 173.205 169.823 173.176L169.879 173.175H254.947Z" fill="white"/>
<path fill-rule="evenodd" clip-rule="evenodd" d="M254.947 180.805C255.474 180.805 255.901 181.232 255.901 181.759C255.901 182.267 255.504 182.682 255.003 182.711L254.947 182.713H169.879C169.352 182.713 168.925 182.285 168.925 181.759C168.925 181.251 169.322 180.836 169.823 180.807L169.879 180.805H254.947Z" fill="white"/>
<path fill-rule="evenodd" clip-rule="evenodd" d="M254.947 188.626C255.474 188.626 255.901 189.053 255.901 189.58C255.901 190.088 255.504 190.503 255.003 190.532L254.947 190.534H169.879C169.352 190.534 168.925 190.107 168.925 189.58C168.925 189.072 169.322 188.657 169.823 188.628L169.879 188.626H254.947Z" fill="white"/>
<path fill-rule="evenodd" clip-rule="evenodd" d="M308.619 147.705C308.99 147.331 309.594 147.328 309.968 147.699C310.328 148.055 310.345 148.625 310.018 149.002L309.975 149.048L266.948 192.476C266.577 192.851 265.973 192.854 265.599 192.483C265.239 192.127 265.222 191.556 265.549 191.18L265.592 191.134L308.619 147.705Z" fill="white"/>
<path fill-rule="evenodd" clip-rule="evenodd" d="M211.032 86.0947H173.825C171.125 86.0947 168.927 88.2801 168.927 90.9908V129.11C168.927 131.809 171.113 134.006 173.825 134.006H211.032C213.722 134.006 215.915 131.847 215.93 129.195L215.93 90.9908C215.93 88.2924 213.744 86.0947 211.032 86.0947ZM173.824 88.0022H211.032C212.687 88.0022 214.021 89.3435 214.021 90.9907V129.11C214.045 130.751 212.697 132.099 211.032 132.099H173.824C172.169 132.099 170.835 130.757 170.835 129.11V90.9907C170.835 89.3359 172.176 88.0022 173.824 88.0022Z" fill="white"/>
<path fill-rule="evenodd" clip-rule="evenodd" d="M254.567 92.3894C255.094 92.3894 255.521 92.8164 255.521 93.3432C255.521 93.8511 255.124 94.2663 254.623 94.2953L254.567 94.297H225.437C224.911 94.297 224.483 93.8699 224.483 93.3432C224.483 92.8352 224.881 92.42 225.381 92.391L225.437 92.3894H254.567Z" fill="white"/>
<path fill-rule="evenodd" clip-rule="evenodd" d="M310.313 105.202C310.84 105.202 311.267 105.629 311.267 106.156C311.267 106.664 310.87 107.079 310.37 107.108L310.313 107.11H225.213C224.686 107.11 224.259 106.683 224.259 106.156C224.259 105.648 224.656 105.233 225.157 105.204L225.213 105.202H310.313Z" fill="white"/>
<path fill-rule="evenodd" clip-rule="evenodd" d="M310.313 112.832C310.84 112.832 311.267 113.259 311.267 113.786C311.267 114.294 310.87 114.709 310.37 114.738L310.313 114.74H225.213C224.686 114.74 224.259 114.313 224.259 113.786C224.259 113.278 224.656 112.863 225.157 112.834L225.213 112.832H310.313Z" fill="white"/>
<path fill-rule="evenodd" clip-rule="evenodd" d="M310.313 120.462C310.84 120.462 311.267 120.889 311.267 121.416C311.267 121.924 310.87 122.339 310.37 122.368L310.313 122.37H225.213C224.686 122.37 224.259 121.943 224.259 121.416C224.259 120.908 224.656 120.493 225.157 120.464L225.213 120.462H310.313Z" fill="white"/>
<path fill-rule="evenodd" clip-rule="evenodd" d="M310.313 128.093C310.84 128.093 311.267 128.52 311.267 129.047C311.267 129.555 310.87 129.97 310.37 129.999L310.313 130H225.213C224.686 130 224.259 129.573 224.259 129.047C224.259 128.539 224.656 128.123 225.157 128.094L225.213 128.093H310.313Z" fill="white"/>
<path fill-rule="evenodd" clip-rule="evenodd" d="M213.183 87.4259C213.554 87.0515 214.158 87.0484 214.533 87.419C214.892 87.7747 214.909 88.3455 214.582 88.7218L214.54 88.7678L171.512 132.228C171.142 132.603 170.538 132.606 170.163 132.235C169.804 131.88 169.787 131.309 170.114 130.933L170.156 130.887L213.183 87.4259Z" fill="white"/>
<path fill-rule="evenodd" clip-rule="evenodd" d="M337.344 36.9746H133.816C131.19 36.9746 129.078 39.0866 129.078 41.7117V73.4408C129.078 76.0659 131.19 78.1779 133.816 78.1779H337.344C339.949 78.1779 342.068 76.1045 342.083 73.526L342.083 41.7117C342.083 39.0867 339.97 36.9746 337.344 36.9746ZM133.818 38.8823H337.346C338.919 38.8823 340.177 40.1404 340.177 41.7118V73.4409C340.201 75.006 338.928 76.2705 337.346 76.2705H133.818C132.247 76.2705 130.988 75.0125 130.988 73.4409V41.7118C130.988 40.1403 132.247 38.8823 133.818 38.8823Z" fill="white"/>
<path fill-rule="evenodd" clip-rule="evenodd" d="M447.38 0C456.743 0 464.336 7.54848 464.487 16.9154L464.489 17.1998V192.759C464.489 193.286 464.062 193.713 463.535 193.713C463.027 193.713 462.611 193.316 462.582 192.815L462.581 192.759V17.1998C462.581 8.75237 455.78 1.90756 447.38 1.90756C446.853 1.90756 446.426 1.48054 446.426 0.95378C446.426 0.427022 446.853 0 447.38 0Z" fill="white"/>
<path fill-rule="evenodd" clip-rule="evenodd" d="M373.188 221.054C374.523 221.182 376.05 221.309 377.672 221.468C377.767 221.118 377.862 220.768 377.958 220.419L378.117 192.155C378.117 190.184 379.739 188.594 381.71 188.594L400.855 188.689C410.363 182.108 421.844 178.23 434.182 178.293C466.047 178.484 492.124 204.777 492.061 236.633L372.52 236.537C368.831 236.537 365.81 233.517 365.842 229.829V227.667C365.937 223.757 369.276 220.705 373.188 221.054Z" fill="#E6B40B"/>
<path fill-rule="evenodd" clip-rule="evenodd" d="M389.814 198.346C390.17 197.958 390.774 197.931 391.162 198.287C391.551 198.643 391.577 199.246 391.222 199.635C386.309 204.997 383.206 210.083 381.552 214.757C380.953 216.447 380.583 217.983 380.396 219.348C380.321 219.896 380.282 220.368 380.267 220.761L380.262 220.927L380.3 220.941C389.506 224.338 401.246 226.881 414.929 228.664L415.407 228.726C426.089 230.101 437.489 230.961 449.084 231.4L450 231.434C457.718 231.712 464.595 231.777 470.153 231.716L471.542 231.697L471.935 231.69L472.038 230.838C472.067 230.599 472.096 230.362 472.126 230.128L472.214 229.44L472.318 228.669L472.396 228.124C472.504 227.385 472.598 226.847 472.678 226.524L472.691 226.475C473.819 222.103 476.059 219.186 479.079 217.534C481.467 216.227 483.943 215.874 486.034 216.038L486.213 216.053C486.281 216.06 486.336 216.067 486.375 216.073C486.897 216.147 487.259 216.631 487.184 217.152C487.112 217.655 486.66 218.01 486.16 217.967L486.01 217.95C485.976 217.947 485.935 217.943 485.885 217.939C484.132 217.802 482.01 218.105 479.996 219.207C477.484 220.581 475.6 223.003 474.588 226.765L474.537 226.958C474.469 227.214 474.368 227.81 474.249 228.641L474.183 229.113C474.158 229.297 474.132 229.489 474.106 229.688L474.019 230.368C473.975 230.714 473.931 231.069 473.889 231.425L473.736 232.733C473.685 233.187 473.32 233.539 472.869 233.577L472.799 233.581L471.994 233.597C471.727 233.602 471.432 233.607 471.11 233.611L469.857 233.626C464.328 233.682 457.535 233.614 449.931 233.341C437.967 232.91 426.19 232.037 415.163 230.618C400.821 228.773 388.553 226.104 378.987 222.487C378.647 222.359 378.41 222.049 378.375 221.688L378.365 221.564L378.363 221.522C378.333 220.929 378.366 220.112 378.506 219.09C378.71 217.597 379.111 215.934 379.753 214.12C381.495 209.201 384.732 203.894 389.814 198.346Z" fill="#473198"/>
<path fill-rule="evenodd" clip-rule="evenodd" d="M196.722 225.219H188.2L157.639 144.816C155.953 140.397 150.77 140.46 149.18 144.943L120.527 225.219H112.195C110.477 225.219 109.046 226.936 109.046 229.066V234.153C109.046 236.283 110.446 238 112.195 238H196.691C198.408 238 199.839 236.283 199.839 234.153V229.066C199.871 226.936 198.472 225.219 196.722 225.219Z" fill="#E6B40B"/>
<path fill-rule="evenodd" clip-rule="evenodd" d="M186.771 224.266C187.298 224.266 187.725 224.693 187.725 225.22C187.725 225.728 187.328 226.143 186.827 226.172L186.771 226.173H121.801C121.274 226.173 120.847 225.746 120.847 225.22C120.847 224.712 121.244 224.296 121.745 224.267L121.801 224.266H186.771Z" fill="#473198"/>
<path fill-rule="evenodd" clip-rule="evenodd" d="M183.843 213.425H124.756L129.526 199.976H178.723L183.843 213.425Z" fill="white"/>
<path fill-rule="evenodd" clip-rule="evenodd" d="M135.124 184.366H172.713L167.593 170.918H139.926L135.124 184.366Z" fill="white"/>
<path fill-rule="evenodd" clip-rule="evenodd" d="M256.543 230.878H251.804L234.822 186.21C233.9 183.762 231.006 183.793 230.116 186.273L214.215 230.878H209.604C208.65 230.878 207.855 231.832 207.855 233.008V235.838C207.855 237.014 208.65 237.968 209.604 237.968H256.543C257.497 237.968 258.292 237.014 258.292 235.838V233.008C258.292 231.832 257.497 230.878 256.543 230.878Z" fill="#E6B40B"/>
<path fill-rule="evenodd" clip-rule="evenodd" d="M251.008 229.925C251.535 229.925 251.962 230.352 251.962 230.878C251.962 231.386 251.565 231.801 251.064 231.83L251.008 231.832H214.914C214.387 231.832 213.96 231.405 213.96 230.878C213.96 230.37 214.357 229.955 214.858 229.926L214.914 229.925H251.008Z" fill="#473198"/>
<path fill-rule="evenodd" clip-rule="evenodd" d="M249.384 224.329H216.565L219.205 216.858H246.522L249.384 224.329Z" fill="white"/>
<path fill-rule="evenodd" clip-rule="evenodd" d="M222.322 208.21H243.183L240.353 200.739H224.993L222.322 208.21Z" fill="white"/>
<path fill-rule="evenodd" clip-rule="evenodd" d="M530.636 235.997C531.163 235.997 531.59 236.424 531.59 236.951C531.59 237.459 531.193 237.874 530.692 237.903L530.636 237.905H0.954038C0.427137 237.905 0 237.478 0 236.951C0 236.443 0.397172 236.028 0.897981 235.999L0.954038 235.997H530.636Z" fill="#473198"/>
</svg>
