<svg width="533" height="249" viewBox="0 0 533 249" fill="none" xmlns="http://www.w3.org/2000/svg">
<rect x="107.416" y="156.088" width="90.9229" height="22.822" transform="rotate(90 107.416 156.088)" fill="#473198"/>
<rect x="101.53" y="163.815" width="42.3261" height="12.2598" transform="rotate(90 101.53 163.815)" fill="white"/>
<rect x="101.524" y="207.922" width="3.95044" height="12.2598" transform="rotate(90 101.524 207.922)" fill="#E6B40B"/>
<path fill-rule="evenodd" clip-rule="evenodd" d="M95.1745 226.147C92.2752 226.147 89.9248 228.491 89.9248 231.383C89.9248 234.275 92.2752 236.619 95.1745 236.619C98.0738 236.619 100.424 234.275 100.424 231.383C100.424 228.491 98.0738 226.147 95.1745 226.147ZM95.1745 228.028C97.0321 228.028 98.5381 229.53 98.5381 231.383C98.5381 233.236 97.0321 234.738 95.1745 234.738C93.3168 234.738 91.8109 233.236 91.8109 231.383C91.8109 229.53 93.3168 228.028 95.1745 228.028Z" fill="white"/>
<path fill-rule="evenodd" clip-rule="evenodd" d="M100.11 172.941C100.631 172.941 101.053 173.363 101.053 173.882C101.053 174.383 100.66 174.792 100.165 174.821L100.11 174.823H91.0251C90.5043 174.823 90.082 174.401 90.082 173.882C90.082 173.381 90.4746 172.972 90.9697 172.943L91.0251 172.941H100.11Z" fill="#E6B40B"/>
<path fill-rule="evenodd" clip-rule="evenodd" d="M100.11 177.613C100.631 177.613 101.053 178.034 101.053 178.553C101.053 179.054 100.66 179.464 100.165 179.492L100.11 179.494H91.0251C90.5043 179.494 90.082 179.073 90.082 178.553C90.082 178.052 90.4746 177.643 90.9697 177.614L91.0251 177.613H100.11Z" fill="#E6B40B"/>
<path fill-rule="evenodd" clip-rule="evenodd" d="M100.11 182.284C100.631 182.284 101.053 182.706 101.053 183.225C101.053 183.726 100.66 184.135 100.165 184.164L100.11 184.166H91.0251C90.5043 184.166 90.082 183.744 90.082 183.225C90.082 182.724 90.4746 182.315 90.9697 182.286L91.0251 182.284H100.11Z" fill="#E6B40B"/>
<rect x="130.133" y="156.16" width="90.9229" height="22.8221" transform="rotate(90 130.133 156.16)" fill="#473198"/>
<rect x="124.247" y="163.917" width="42.3262" height="12.2598" transform="rotate(90 124.247 163.917)" fill="white"/>
<rect x="124.241" y="208.025" width="3.95044" height="12.2598" transform="rotate(90 124.241 208.025)" fill="#473198"/>
<path fill-rule="evenodd" clip-rule="evenodd" d="M117.87 226.241C114.971 226.241 112.621 228.585 112.621 231.477C112.621 234.369 114.971 236.713 117.87 236.713C120.77 236.713 123.12 234.369 123.12 231.477C123.12 228.585 120.77 226.241 117.87 226.241ZM117.87 228.122C119.728 228.122 121.234 229.624 121.234 231.477C121.234 233.33 119.728 234.832 117.87 234.832C116.013 234.832 114.507 233.33 114.507 231.477C114.507 229.624 116.013 228.122 117.87 228.122Z" fill="white"/>
<path fill-rule="evenodd" clip-rule="evenodd" d="M122.712 192.443C123.232 192.443 123.655 192.864 123.655 193.383C123.655 193.884 123.262 194.294 122.767 194.322L122.712 194.324H113.595C113.075 194.324 112.652 193.903 112.652 193.383C112.652 192.883 113.045 192.473 113.54 192.444L113.595 192.443H122.712Z" fill="#473198"/>
<path fill-rule="evenodd" clip-rule="evenodd" d="M122.712 168.364C123.232 168.364 123.655 168.785 123.655 169.305C123.655 169.806 123.262 170.215 122.767 170.244L122.712 170.245H113.595C113.075 170.245 112.652 169.824 112.652 169.305C112.652 168.804 113.045 168.394 113.54 168.366L113.595 168.364H122.712Z" fill="#473198"/>
<path fill-rule="evenodd" clip-rule="evenodd" d="M122.712 197.083C123.232 197.083 123.655 197.504 123.655 198.024C123.655 198.524 123.262 198.934 122.767 198.963L122.712 198.964H113.595C113.075 198.964 112.652 198.543 112.652 198.024C112.652 197.523 113.045 197.113 113.54 197.085L113.595 197.083H122.712Z" fill="#473198"/>
<path fill-rule="evenodd" clip-rule="evenodd" d="M122.712 201.755C123.232 201.755 123.655 202.176 123.655 202.695C123.655 203.196 123.262 203.606 122.767 203.634L122.712 203.636H113.595C113.075 203.636 112.652 203.215 112.652 202.695C112.652 202.194 113.045 201.785 113.54 201.756L113.595 201.755H122.712Z" fill="#473198"/>
<rect x="84.9224" y="156.166" width="90.9229" height="22.8221" transform="rotate(90 84.9224 156.166)" fill="#473198"/>
<rect x="79.0366" y="163.924" width="42.3262" height="12.2598" transform="rotate(90 79.0366 163.924)" fill="white"/>
<rect x="79.0308" y="208" width="3.95042" height="12.2598" transform="rotate(90 79.0308 208)" fill="#E6B40B"/>
<path fill-rule="evenodd" clip-rule="evenodd" d="M72.6667 226.241C69.7674 226.241 67.417 228.585 67.417 231.477C67.417 234.369 69.7674 236.713 72.6667 236.713C75.566 236.713 77.9164 234.369 77.9164 231.477C77.9164 228.585 75.566 226.241 72.6667 226.241ZM72.6667 228.122C74.5244 228.122 76.0303 229.624 76.0303 231.477C76.0303 233.33 74.5244 234.832 72.6667 234.832C70.809 234.832 69.3031 233.33 69.3031 231.477C69.3031 229.624 70.809 228.122 72.6667 228.122Z" fill="white"/>
<path fill-rule="evenodd" clip-rule="evenodd" d="M77.4766 192.443C77.9974 192.443 78.4197 192.864 78.4197 193.383C78.4197 193.884 78.0271 194.294 77.532 194.322L77.4766 194.324H68.3918C67.871 194.324 67.4487 193.903 67.4487 193.383C67.4487 192.882 67.8413 192.473 68.3364 192.444L68.3918 192.443H77.4766Z" fill="#473198"/>
<path fill-rule="evenodd" clip-rule="evenodd" d="M77.4766 168.364C77.9974 168.364 78.4197 168.785 78.4197 169.304C78.4197 169.805 78.0271 170.215 77.532 170.243L77.4766 170.245H68.3918C67.871 170.245 67.4487 169.824 67.4487 169.304C67.4487 168.803 67.8413 168.394 68.3364 168.365L68.3918 168.364H77.4766Z" fill="#473198"/>
<path fill-rule="evenodd" clip-rule="evenodd" d="M77.4766 197.083C77.9974 197.083 78.4197 197.504 78.4197 198.024C78.4197 198.524 78.0271 198.934 77.532 198.963L77.4766 198.964H68.3918C67.871 198.964 67.4487 198.543 67.4487 198.024C67.4487 197.523 67.8413 197.113 68.3364 197.085L68.3918 197.083H77.4766Z" fill="#473198"/>
<path fill-rule="evenodd" clip-rule="evenodd" d="M77.4766 201.754C77.9974 201.754 78.4197 202.176 78.4197 202.695C78.4197 203.196 78.0271 203.605 77.532 203.634L77.4766 203.636H68.3918C67.871 203.636 67.4487 203.214 67.4487 202.695C67.4487 202.194 67.8413 201.785 68.3364 201.756L68.3918 201.754H77.4766Z" fill="#473198"/>
<path fill-rule="evenodd" clip-rule="evenodd" d="M110.264 126.978C110.264 126.978 110.829 121.648 106.9 116.883C102.971 112.117 102.939 109.107 100.739 106.85C98.5381 104.561 95.0488 105.627 98.1923 113.34C101.336 121.052 102.688 124.219 102.688 124.219L110.264 126.978Z" fill="white"/>
<path fill-rule="evenodd" clip-rule="evenodd" d="M96.7235 105.758C95.5845 107.184 95.7756 109.909 97.3183 113.694L99.206 118.306C99.6762 119.449 100.107 120.492 100.5 121.438L101.409 123.615L101.82 124.588C101.922 124.827 102.119 125.014 102.364 125.103L109.94 127.862C110.516 128.072 111.136 127.686 111.201 127.077L111.213 126.939C111.215 126.909 111.217 126.876 111.219 126.84C111.27 125.932 111.213 124.773 110.965 123.451C110.597 121.493 109.871 119.561 108.702 117.752C108.376 117.248 108.018 116.759 107.628 116.285C106.524 114.946 105.677 113.684 104.946 112.349C104.694 111.89 104.463 111.436 104.205 110.903L103.392 109.194C102.738 107.853 102.196 106.996 101.414 106.194C99.9385 104.659 97.8847 104.304 96.7235 105.758ZM100.057 107.501C100.625 108.083 101.047 108.723 101.555 109.732L101.695 110.017C101.835 110.303 102.337 111.369 102.404 111.509C102.716 112.162 102.989 112.7 103.291 113.251C104.078 114.687 104.99 116.047 106.171 117.48C106.515 117.897 106.83 118.328 107.116 118.771C108.145 120.364 108.786 122.068 109.11 123.797L109.142 123.971C109.243 124.544 109.302 125.078 109.33 125.561L109.334 125.639L103.396 123.476L102.489 121.311L101.247 118.311C100.632 116.82 99.9463 115.146 99.186 113.282L99.0654 112.986C97.7549 109.77 97.6076 107.67 98.1985 106.93C98.4957 106.558 99.2269 106.673 99.9934 107.436L100.057 107.501Z" fill="#473198"/>
<path fill-rule="evenodd" clip-rule="evenodd" d="M92.2822 116.099C92.628 116.099 114.035 115.001 116.582 136.165L92.2822 116.099Z" fill="white"/>
<path fill-rule="evenodd" clip-rule="evenodd" d="M96.9804 115.45C99.7157 115.837 102.418 116.578 104.952 117.76C111.845 120.975 116.416 126.892 117.518 136.052C117.58 136.568 117.211 137.036 116.694 137.098C116.177 137.16 115.707 136.792 115.645 136.277C114.623 127.784 110.474 122.412 104.153 119.464C101.801 118.367 99.2766 117.675 96.7151 117.312C95.0993 117.083 93.7368 117.014 92.6362 117.031L92.2819 117.039C91.7611 117.039 91.3389 116.618 91.3389 116.099C91.3389 115.598 91.7315 115.188 92.2265 115.16L92.4442 115.154C93.6664 115.125 95.1794 115.194 96.9804 115.45Z" fill="#473198"/>
<path fill-rule="evenodd" clip-rule="evenodd" d="M106.742 158.331C106.742 158.331 104.102 142.717 100.612 137.293C97.1231 131.869 89.3585 132.277 89.3585 132.277C89.3585 132.277 69.6171 114.813 66.7565 111.678C63.8959 108.511 64.9961 105.502 70.0887 109.013C75.1812 112.525 90.5531 123.623 90.5531 123.623C90.5531 123.623 116.141 114.97 120.322 139.488L125.038 154.036L106.742 158.331Z" fill="white"/>
<path fill-rule="evenodd" clip-rule="evenodd" d="M64.6965 107.263C63.7507 108.474 64.4056 110.48 66.0562 112.308L66.1695 112.43C67.3751 113.716 70.7491 116.852 75.734 121.359L77.2536 122.731L78.7805 124.105C80.6693 125.802 82.6353 127.559 84.6076 129.316L88.733 132.98C88.9015 133.13 89.1173 133.213 89.3411 133.217L89.481 133.214C90.0245 133.199 90.7694 133.227 91.6404 133.335C92.956 133.499 94.2532 133.813 95.4565 134.311C97.3121 135.077 98.802 136.22 99.8189 137.801C100.993 139.627 102.185 142.889 103.328 147.141C103.995 149.621 104.604 152.282 105.143 154.944L105.306 155.764C105.376 156.12 105.443 156.464 105.505 156.795L105.687 157.778L105.813 158.487C105.903 159.023 106.429 159.371 106.959 159.246L125.254 154.951L125.309 154.937C125.812 154.787 126.099 154.251 125.935 153.746L121.24 139.262L121.252 139.33C119.499 129.048 113.968 123.477 105.923 121.759C101.801 120.878 97.4243 121.086 93.23 121.962C92.5119 122.112 91.8529 122.272 91.2621 122.433L90.8965 122.535L90.7237 122.585L87.7099 120.414C86.3367 119.425 84.9618 118.436 83.6113 117.467L78.8586 114.062C75.1373 111.403 72.2921 109.389 70.6252 108.239L70.3911 108.081C67.7915 106.347 65.7171 105.957 64.6965 107.263ZM66.8242 108.423C67.478 108.56 68.3636 108.982 69.4248 109.699L70.1149 110.176C71.3827 111.057 73.1619 112.314 75.3611 113.88L79.1098 116.556L80.7902 117.76C81.7358 118.438 82.6997 119.13 83.6723 119.829L90.0007 124.385C90.2482 124.564 90.5672 124.612 90.8565 124.514L91.033 124.458L91.2318 124.397C91.3024 124.376 91.3774 124.354 91.4565 124.332L91.5783 124.297C92.178 124.129 92.8619 123.961 93.6167 123.803C97.5751 122.977 101.701 122.781 105.528 123.598C112.83 125.158 117.771 130.135 119.393 139.646L119.407 139.712C119.412 139.734 119.419 139.756 119.426 139.777L123.826 153.354L107.497 157.187L107.359 156.447C107.248 155.86 107.126 155.232 106.992 154.572C106.446 151.874 105.828 149.176 105.15 146.653L105.02 146.174C103.869 141.979 102.668 138.746 101.407 136.785C100.166 134.856 98.3689 133.478 96.1788 132.573C94.8059 132.005 93.3473 131.652 91.8743 131.469L91.6935 131.447C91.0364 131.371 90.4448 131.336 89.9417 131.33L89.7087 131.329L86.4018 128.392L84.7907 126.956C83.3611 125.681 81.9417 124.411 80.5598 123.171L77.6796 120.578C72.2187 115.648 68.5341 112.228 67.4546 111.045C66.3479 109.82 65.9774 108.685 66.1847 108.419C66.1881 108.415 66.2011 108.407 66.2551 108.395C66.3793 108.366 66.5709 108.37 66.8242 108.423Z" fill="#473198"/>
<path fill-rule="evenodd" clip-rule="evenodd" d="M89.0445 131.524C89.0445 131.524 78.9223 109.045 77.382 104.812C75.8417 100.579 77.9164 98.3533 81.3743 103.965C84.8322 109.578 92.6596 122.589 92.6596 122.589" fill="white"/>
<path fill-rule="evenodd" clip-rule="evenodd" d="M77.0769 99.8582C78.5415 99.1165 80.2993 100.467 82.1006 103.348L82.6466 104.235C83.2518 105.222 83.9744 106.406 84.799 107.761L87.0839 111.527C88.1618 113.307 89.2965 115.185 90.4432 117.085L93.4683 122.105C93.7363 122.55 93.5915 123.128 93.1449 123.395C92.7148 123.653 92.1617 123.528 91.882 123.121L91.846 123.065L89.1714 118.626C88.2529 117.103 87.3391 115.59 86.4532 114.126L82.8561 108.194C81.9522 106.709 81.183 105.451 80.5709 104.458C79.8011 103.208 79.0878 102.341 78.4927 101.875C78.2884 101.715 78.1159 101.616 77.9867 101.573L77.9452 101.56L77.9316 101.557L77.9172 101.589C77.8624 101.711 77.8229 101.901 77.8119 102.147C77.7861 102.725 77.9207 103.492 78.2176 104.348L78.2685 104.491C78.7884 105.919 80.3433 109.573 82.6493 114.83L83.9786 117.849L85.0955 120.373C85.7576 121.865 86.4358 123.389 87.1191 124.92L89.9049 131.139C90.1183 131.613 89.9061 132.17 89.4309 132.382C88.9558 132.595 88.3977 132.384 88.1843 131.91L86.4515 128.047L85.05 124.91C84.3062 123.241 83.5706 121.586 82.8577 119.976L81.1722 116.155C78.7076 110.546 77.0534 106.666 76.4956 105.133C75.607 102.691 75.7023 100.554 77.0769 99.8582Z" fill="#473198"/>
<path fill-rule="evenodd" clip-rule="evenodd" d="M88.0698 129.706C88.0698 129.706 87.2524 110.424 87.2524 106.693C87.2524 100.548 90.9618 98.7921 91.9049 107.069C92.5336 112.619 93.2566 122.808 93.2566 122.808" fill="white"/>
<path fill-rule="evenodd" clip-rule="evenodd" d="M89.0708 100.545C91.0218 100.223 92.324 102.626 92.8247 106.818L92.8417 106.964C92.8969 107.451 92.9539 107.983 93.0125 108.557L93.0632 109.06C93.1829 110.262 93.308 111.62 93.4369 113.106C93.6033 115.023 93.7686 117.063 93.9266 119.115L94.1039 121.463L94.197 122.742C94.2338 123.26 93.8424 123.71 93.3229 123.747C92.8219 123.782 92.3847 123.42 92.3211 122.93L92.3141 122.853L92.1323 120.39L91.9986 118.646C91.8714 117.011 91.74 115.392 91.6076 113.845L91.4759 112.336C91.3945 111.421 91.3149 110.562 91.2375 109.767L91.1362 108.749C91.0782 108.181 91.0219 107.655 90.9675 107.175C90.756 105.318 90.3943 103.937 89.9466 103.095C89.7734 102.769 89.6029 102.556 89.4592 102.45L89.4165 102.42C89.3892 102.402 89.381 102.4 89.3786 102.401C89.3466 102.406 89.2755 102.449 89.1743 102.561C89.0195 102.731 88.8621 102.997 88.7215 103.346C88.3891 104.171 88.1952 105.335 88.1952 106.693L88.1973 107.064C88.2116 108.465 88.2979 111.299 88.4397 115.21L88.5537 118.274L88.6032 119.562C88.6478 120.718 88.6941 121.894 88.7412 123.072L89.0117 129.666C89.0337 130.185 88.6297 130.624 88.1093 130.646C87.6075 130.667 87.1808 130.293 87.1312 129.801L87.1181 129.528L86.9995 126.673C86.9356 125.118 86.8717 123.537 86.8098 121.97L86.669 118.345L86.495 113.6C86.3756 110.175 86.3091 107.779 86.3091 106.693C86.3091 103.369 87.3317 100.832 89.0708 100.545Z" fill="#473198"/>
<path fill-rule="evenodd" clip-rule="evenodd" d="M379.256 126.978C379.256 126.978 378.69 121.648 382.619 116.883C386.549 112.117 386.58 109.107 388.781 106.85C390.981 104.592 394.471 105.627 391.327 113.34C388.184 121.053 386.832 124.219 386.832 124.219L379.256 126.978Z" fill="white"/>
<path fill-rule="evenodd" clip-rule="evenodd" d="M388.104 106.194C387.354 106.964 386.824 107.785 386.204 109.036L385.857 109.759C385.666 110.161 385.451 110.618 385.412 110.699C385.113 111.323 384.856 111.832 384.573 112.349C383.841 113.684 382.995 114.946 381.89 116.285C381.5 116.759 381.142 117.248 380.817 117.752C379.648 119.561 378.921 121.493 378.554 123.451C378.317 124.71 378.254 125.822 378.293 126.708L378.299 126.84C378.306 126.949 378.312 127.029 378.317 127.077C378.382 127.686 379.002 128.072 379.579 127.862L387.155 125.103C387.4 125.014 387.597 124.827 387.699 124.588L388.162 123.491L389.103 121.234C389.957 119.177 390.986 116.673 392.2 113.694C393.743 109.908 393.934 107.19 392.794 105.769C391.635 104.324 389.587 104.673 388.104 106.194ZM391.32 106.944C391.9 107.667 391.767 109.705 390.514 112.834L389.301 115.804C388.792 117.046 388.323 118.186 387.892 119.228L386.961 121.474L386.122 123.476L380.183 125.639L380.187 125.562C380.218 125.03 380.287 124.437 380.407 123.798C380.732 122.068 381.373 120.364 382.402 118.772C382.688 118.328 383.003 117.897 383.347 117.48C384.528 116.048 385.44 114.687 386.227 113.252C386.496 112.762 386.741 112.282 387.011 111.723L387.805 110.053L387.963 109.732C388.471 108.723 388.892 108.084 389.456 107.506C390.247 106.694 391.015 106.563 391.32 106.944Z" fill="#473198"/>
<path fill-rule="evenodd" clip-rule="evenodd" d="M397.237 116.099C396.891 116.099 375.484 115.001 372.938 136.165L397.237 116.099Z" fill="white"/>
<path fill-rule="evenodd" clip-rule="evenodd" d="M392.538 115.45C394.261 115.206 395.72 115.132 396.913 115.151L397.237 115.158C397.758 115.158 398.18 115.58 398.18 116.099C398.18 116.6 397.787 117.009 397.292 117.038L397.237 117.04C397.214 117.04 397.077 117.036 397.031 117.034C395.905 117.009 394.493 117.073 392.804 117.312C390.242 117.675 387.717 118.367 385.365 119.464C379.044 122.412 374.895 127.784 373.874 136.277C373.812 136.793 373.342 137.161 372.825 137.099C372.308 137.037 371.939 136.568 372.001 136.053C373.103 126.892 377.673 120.975 384.566 117.76C387.101 116.578 389.803 115.838 392.538 115.45Z" fill="#473198"/>
<path fill-rule="evenodd" clip-rule="evenodd" d="M382.776 158.331C382.776 158.331 385.416 142.717 388.906 137.293C392.395 131.869 400.16 132.277 400.16 132.277C400.16 132.277 419.901 114.813 422.762 111.678C425.622 108.511 424.522 105.502 419.429 109.013C414.337 112.525 398.965 123.623 398.965 123.623C398.965 123.623 373.377 114.97 369.196 139.488L364.48 154.036L382.776 158.331Z" fill="white"/>
<path fill-rule="evenodd" clip-rule="evenodd" d="M418.894 108.239L417.687 109.078C416.443 109.949 414.824 111.094 412.891 112.471L409.31 115.028L407.059 116.641C405.915 117.461 404.748 118.3 403.573 119.144L398.795 122.585L398.539 122.511L398.451 122.486C397.812 122.307 397.087 122.129 396.289 121.962C392.095 121.086 387.718 120.878 383.596 121.759L383.356 121.812C375.52 123.571 370.113 129.039 368.32 139.023L368.278 139.262L363.584 153.746C363.414 154.269 363.728 154.825 364.265 154.951L382.56 159.246C383.09 159.371 383.616 159.023 383.706 158.487L383.832 157.778L383.967 157.041C384.089 156.393 384.225 155.69 384.376 154.944C384.915 152.282 385.524 149.621 386.191 147.141L386.316 146.681C387.42 142.654 388.568 139.56 389.7 137.801C390.717 136.22 392.207 135.077 394.062 134.311C395.266 133.813 396.563 133.499 397.879 133.335C398.695 133.234 399.401 133.202 399.934 133.211L400.111 133.216C400.335 133.228 400.556 133.159 400.734 133.023L400.807 132.962L404.373 129.795L405.986 128.358C407.954 126.603 409.902 124.858 411.761 123.185L414.44 120.766C419.227 116.43 422.414 113.457 423.46 112.311C425.113 110.48 425.768 108.474 424.822 107.263C423.771 105.917 421.603 106.372 418.894 108.239ZM423.265 108.395L423.306 108.406C423.326 108.412 423.333 108.416 423.335 108.419C423.542 108.685 423.172 109.82 422.062 111.048L421.915 111.206C420.732 112.457 417.381 115.568 412.506 119.976L411.001 121.335L409.476 122.707C407.761 124.248 405.982 125.839 404.192 127.434L399.811 131.329L399.713 131.329C399.138 131.331 398.436 131.37 397.645 131.469C396.172 131.652 394.714 132.005 393.341 132.573C391.151 133.478 389.354 134.856 388.113 136.785C386.804 138.82 385.56 142.225 384.369 146.653C383.691 149.176 383.074 151.874 382.528 154.572L382.362 155.402C382.256 155.943 382.158 156.457 382.068 156.94L382.022 157.187L365.693 153.354L370.094 139.777C370.108 139.734 370.119 139.69 370.126 139.646C371.748 130.135 376.689 125.158 383.992 123.598C387.818 122.781 391.945 122.977 395.903 123.803C396.582 123.945 397.204 124.096 397.759 124.247L397.941 124.297C398.066 124.332 398.182 124.366 398.288 124.397L398.599 124.493C398.628 124.503 398.65 124.51 398.663 124.514C398.932 124.605 399.226 124.57 399.465 124.422L399.849 124.147L404.089 121.092C405.657 119.965 407.216 118.845 408.729 117.76L414.159 113.88C416.705 112.067 418.688 110.668 419.967 109.787C421.085 109.016 422.015 108.566 422.695 108.423C422.949 108.37 423.14 108.366 423.265 108.395Z" fill="#473198"/>
<path fill-rule="evenodd" clip-rule="evenodd" d="M400.474 131.524C400.474 131.524 410.596 109.045 412.137 104.812C413.645 100.579 411.602 98.3533 408.144 103.965C404.686 109.578 396.859 122.589 396.859 122.589" fill="white"/>
<path fill-rule="evenodd" clip-rule="evenodd" d="M407.341 103.473C409.171 100.503 410.95 99.1045 412.432 99.8591C413.775 100.543 413.893 102.615 413.065 105.015L413.023 105.133C412.433 106.756 410.613 111.01 407.903 117.163L407.266 118.607L406.354 120.669C405.43 122.755 404.471 124.907 403.509 127.059L401.335 131.91C401.121 132.384 400.563 132.595 400.088 132.382C399.613 132.17 399.401 131.613 399.614 131.139L401.345 127.28L403.063 123.432C403.698 122.007 404.325 120.595 404.936 119.216L406.858 114.856C409.17 109.585 410.729 105.923 411.248 104.497C411.575 103.581 411.722 102.759 411.694 102.148C411.684 101.929 411.651 101.754 411.605 101.631L411.574 101.558L411.566 101.56C411.448 101.591 411.286 101.676 411.09 101.822L411.023 101.873C410.452 102.322 409.771 103.144 409.033 104.32L408.948 104.458C408.409 105.332 407.749 106.411 406.982 107.67L404.049 112.5L401.378 116.919L397.668 123.073C397.4 123.518 396.821 123.663 396.374 123.395C395.944 123.138 395.794 122.593 396.022 122.155L396.06 122.089L398.042 118.799L400.443 114.821L403.902 109.107C405.315 106.78 406.482 104.868 407.341 103.473Z" fill="#473198"/>
<path fill-rule="evenodd" clip-rule="evenodd" d="M401.449 129.706C401.449 129.706 402.266 110.424 402.266 106.693C402.266 100.548 398.557 98.7921 397.614 107.069C396.985 112.619 396.262 122.808 396.262 122.808" fill="white"/>
<path fill-rule="evenodd" clip-rule="evenodd" d="M396.677 106.963L396.712 106.674C397.225 102.571 398.519 100.227 400.448 100.545C402.162 100.828 403.181 103.298 403.209 106.553L403.209 106.872C403.201 108.303 403.102 111.516 402.935 116.054L402.817 119.201L402.709 121.969C402.662 123.145 402.615 124.328 402.567 125.502L402.391 129.746C402.369 130.265 401.93 130.668 401.409 130.646C400.908 130.624 400.514 130.216 400.506 129.721L400.516 129.449L400.635 126.596L400.777 123.072L400.932 119.129L401.129 113.812C401.249 110.383 401.319 107.948 401.323 106.807L401.323 106.693C401.323 105.335 401.13 104.171 400.797 103.346C400.657 102.997 400.499 102.731 400.344 102.561C400.243 102.449 400.172 102.406 400.14 102.401L400.134 102.402C400.124 102.406 400.104 102.417 400.059 102.45C399.916 102.556 399.745 102.769 399.572 103.095C399.139 103.91 398.786 105.23 398.572 106.997L398.551 107.175C398.497 107.655 398.441 108.18 398.383 108.748L398.281 109.767C398.178 110.828 398.071 112.001 397.961 113.268C397.812 114.987 397.663 116.807 397.52 118.646L397.331 121.131L397.203 122.875C397.166 123.393 396.715 123.783 396.196 123.747C395.676 123.71 395.285 123.26 395.322 122.742L395.487 120.501L395.545 119.73C395.701 117.678 395.866 115.625 396.032 113.685L396.191 111.864C396.273 110.957 396.352 110.107 396.43 109.32L396.506 108.557C396.565 107.983 396.622 107.451 396.677 106.963Z" fill="#473198"/>
<path fill-rule="evenodd" clip-rule="evenodd" d="M388.655 149.96C389.064 145.163 388.435 143.25 388.435 143.25C377.37 144.41 368.505 133.876 368.505 133.876C368.505 133.876 367.436 135.067 364.481 138.892C361.495 142.717 355.868 138.391 352.504 143.877C349.801 148.329 340.245 171.593 336.661 180.341C325.816 148.173 311.858 131.838 289.099 127.731C286.144 109.797 273.319 87.0349 222.331 91.0167C190.644 96.7229 180.962 112.901 183.162 129.988H183.005C183.005 129.988 162.478 129.706 151.004 163.755C147.64 155.854 144.214 148.11 142.768 145.696C139.436 140.209 128.024 142.655 125.038 138.861C122.052 135.036 121.014 133.845 121.014 133.845C121.014 133.845 112.15 144.379 101.084 143.219C101.084 143.219 100.456 145.131 100.864 149.928C101.273 154.725 95.426 155.29 96.7463 161.56C98.0352 167.831 118.657 224.109 118.657 224.109C120.606 229.345 123.152 245.711 133.809 246.275C133.903 246.463 134.029 246.558 134.186 246.558C151.067 246.495 357.44 246.683 357.44 246.683C357.44 246.683 357.471 246.463 357.471 246.025C366.65 243.861 369.039 229.031 370.894 224.078C370.894 224.078 391.484 167.831 392.805 161.529C394.093 155.29 388.246 154.757 388.655 149.96Z" fill="#E6B40B"/>
<path fill-rule="evenodd" clip-rule="evenodd" d="M388.749 149.176C389.535 144.16 388.561 142.278 388.561 142.278C378.47 144.473 369.133 132.998 369.133 132.998C369.133 132.998 367.876 134.095 364.858 138.328C363.632 140.021 362.406 140.209 361.149 140.554C365.33 154.161 385.008 156.042 391.861 156.23C391.327 153.283 388.152 153.001 388.749 149.176Z" fill="#473198"/>
<path fill-rule="evenodd" clip-rule="evenodd" d="M100.739 149.207C99.9531 144.191 100.959 142.278 100.959 142.278C111.05 144.473 120.386 132.998 120.386 132.998C120.386 132.998 121.895 133.155 124.944 137.387C126.17 139.08 128.245 140.523 129.502 140.868C125.321 154.475 104.323 156.324 97.4697 156.481C97.9727 153.565 101.336 153.032 100.739 149.207Z" fill="#473198"/>
<path fill-rule="evenodd" clip-rule="evenodd" d="M183.068 128.954C176.938 130.208 170.557 133.437 164.93 139.645C170.179 147.201 188.475 172.941 222.205 178.397C222.205 178.24 222.142 177.989 222.048 177.707C203.344 170.057 185.048 148.769 183.068 128.954Z" fill="#473198"/>
<path fill-rule="evenodd" clip-rule="evenodd" d="M289.099 127.605C290.262 134.566 289.948 140.836 289.791 144.536C289.256 156.732 283.787 165.26 280.329 171.343L280.077 177.582C294.349 174.227 305.54 147.891 307.457 134.942C302.396 132.152 301.485 130.114 289.099 127.605Z" fill="#473198"/>
<path fill-rule="evenodd" clip-rule="evenodd" d="M219.186 169.756C219.767 169.42 220.507 169.6 220.869 170.155L220.95 170.291L221.204 170.736C221.313 170.928 221.433 171.141 221.563 171.374L222.022 172.203C222.377 172.847 222.755 173.544 223.151 174.286L223.284 174.536C225.063 177.882 226.841 181.454 228.503 185.107C230.103 188.628 231.511 192.043 232.672 195.289C234.5 200.399 235.664 204.932 236.031 208.752C236.097 209.441 235.591 210.054 234.9 210.12C234.208 210.186 233.594 209.681 233.528 208.991C233.183 205.41 232.068 201.064 230.303 196.132C229.167 192.956 227.786 189.604 226.212 186.143C224.676 182.766 223.037 179.455 221.391 176.333L221.062 175.711C220.448 174.555 219.877 173.51 219.366 172.595L219.015 171.971L218.728 171.469C218.38 170.87 218.585 170.103 219.186 169.756Z" fill="#473198"/>
<path fill-rule="evenodd" clip-rule="evenodd" d="M278.556 168.189C279.205 168.367 279.595 169.02 279.451 169.668L279.224 170.526L279.031 171.277C278.931 171.671 278.825 172.094 278.715 172.544L278.659 172.77C278.074 175.173 277.489 177.799 276.943 180.563C276 185.333 275.275 189.999 274.854 194.367C274.389 199.193 274.316 203.461 274.695 207.014C274.769 207.703 274.269 208.321 273.578 208.394C272.888 208.468 272.268 207.969 272.195 207.28C271.795 203.537 271.871 199.108 272.351 194.127C272.78 189.668 273.518 184.923 274.475 180.077C274.997 177.441 275.553 174.928 276.111 172.611L276.216 172.178C276.367 171.558 276.51 170.984 276.644 170.461L276.82 169.781L277.011 169.066C277.195 168.398 277.887 168.006 278.556 168.189Z" fill="#473198"/>
<path fill-rule="evenodd" clip-rule="evenodd" d="M149.928 163.697C150.411 163.559 150.913 163.823 151.077 164.29L151.094 164.343C151.12 164.436 153.546 169.621 156.982 176.924L160.524 184.447L166.192 196.463C166.414 196.933 166.212 197.493 165.741 197.714C165.269 197.936 164.707 197.734 164.486 197.264L158.817 185.247L153.012 172.911C150.547 167.662 149.335 165.052 149.28 164.86C149.137 164.36 149.427 163.84 149.928 163.697Z" fill="#473198"/>
<path fill-rule="evenodd" clip-rule="evenodd" d="M336.63 180.594C336.889 180.143 337.465 179.987 337.917 180.246C338.352 180.495 338.513 181.037 338.293 181.479L338.266 181.53L327.986 199.401C327.727 199.851 327.151 200.007 326.699 199.749C326.264 199.5 326.103 198.957 326.323 198.515L326.35 198.465L336.63 180.594Z" fill="#473198"/>
<path fill-rule="evenodd" clip-rule="evenodd" d="M194.651 220.944C195.172 220.969 195.573 221.41 195.547 221.929L195.529 222.225L195.497 222.662C195.488 222.78 195.478 222.905 195.467 223.035C195.392 223.902 195.286 224.867 195.145 225.905C194.742 228.875 194.132 231.846 193.272 234.628C192.125 238.337 190.617 241.428 188.682 243.695C186.322 246.458 183.396 247.903 179.914 247.748C179.394 247.725 178.991 247.285 179.014 246.766C179.037 246.247 179.478 245.846 179.998 245.869C185.361 246.107 189.105 241.723 191.47 234.074C192.296 231.401 192.886 228.527 193.276 225.653C193.401 224.737 193.496 223.882 193.567 223.104L193.588 222.874C193.6 222.728 193.611 222.59 193.621 222.461L193.662 221.858C193.663 221.85 193.663 221.843 193.663 221.837C193.688 221.336 194.1 220.947 194.596 220.942L194.651 220.944Z" fill="#473198"/>
<path fill-rule="evenodd" clip-rule="evenodd" d="M270.647 246.746C267.849 225.206 264.894 193.321 269.452 179.839C276.651 158.613 273.853 131.932 268.981 128.076C264.108 124.219 210.448 124.94 210.448 124.94L200.797 128.264C200.797 128.264 237.545 162.313 248.422 224.423C250.119 234.173 251.283 241.823 252.037 247.812" fill="white"/>
<path fill-rule="evenodd" clip-rule="evenodd" d="M218.809 106.913L218.023 120.488L210.007 126.006C210.007 126.006 231.006 140.523 249.773 162.156C249.773 162.156 261.31 154.036 263.982 128.295L257.946 127.355L229.026 110.267L218.809 106.913Z" fill="white"/>
<path fill-rule="evenodd" clip-rule="evenodd" d="M217.868 106.858L217.108 119.975L209.472 125.232C208.946 125.594 208.929 126.355 209.421 126.743L210.049 127.187L210.523 127.528C211.077 127.927 211.702 128.384 212.392 128.899L212.958 129.321C215.145 130.963 217.555 132.843 220.134 134.947C228.146 141.482 236.159 148.813 243.635 156.768C245.498 158.751 247.309 160.753 249.06 162.772C249.377 163.137 249.921 163.203 250.317 162.925L250.389 162.872C250.535 162.765 250.751 162.592 251.028 162.351C251.559 161.888 252.146 161.316 252.776 160.628C254.557 158.679 256.333 156.184 257.984 153.09C261.421 146.651 263.873 138.481 264.92 128.392L264.924 128.337C264.946 127.861 264.605 127.44 264.128 127.366L258.271 126.453L229.507 109.458C229.448 109.423 229.386 109.395 229.321 109.374L219.104 106.019C218.516 105.826 217.904 106.242 217.868 106.858ZM219.68 108.189L228.632 111.128L257.465 128.164L257.529 128.198C257.614 128.24 257.706 128.269 257.801 128.284L262.947 129.086L262.92 129.326C261.837 138.657 259.512 146.224 256.319 152.206C254.742 155.16 253.059 157.526 251.382 159.36L251.249 159.505C250.811 159.975 250.401 160.381 250.023 160.724L249.883 160.849L250.486 161.541C248.718 159.502 246.891 157.482 245.011 155.481C237.474 147.461 229.401 140.075 221.328 133.491L220.653 132.943C218.084 130.861 215.688 129.005 213.52 127.391L212.918 126.945C212.581 126.696 212.262 126.462 211.961 126.244L211.649 126.019L218.559 121.262C218.798 121.098 218.948 120.832 218.965 120.542L219.68 108.189Z" fill="#473198"/>
<path fill-rule="evenodd" clip-rule="evenodd" d="M209.724 82.1125C209.724 82.1125 197.339 83.8056 200.859 94.8104C204.38 105.815 217.363 97.6948 217.363 97.6948L213.685 81.8931L209.724 82.1125Z" fill="white"/>
<path fill-rule="evenodd" clip-rule="evenodd" d="M213.633 80.9541L209.672 81.1736C209.647 81.175 209.622 81.1774 209.597 81.1808L209.469 81.1996C209.128 81.2534 208.619 81.3581 207.993 81.5285C206.814 81.8491 205.635 82.2977 204.527 82.8991C200.127 85.2867 198.112 89.3158 199.962 95.0965C201.423 99.666 204.561 101.667 208.711 101.513C210.692 101.439 212.779 100.883 214.865 100.004C215.557 99.7127 216.206 99.4029 216.801 99.0907L217.021 98.9735C217.416 98.7605 217.704 98.5924 217.865 98.4919C218.205 98.2787 218.373 97.8732 218.282 97.4823L214.604 81.6805C214.501 81.2352 214.091 80.9287 213.633 80.9541ZM212.946 82.8762L216.287 97.2298L216.125 97.3182C215.522 97.6428 214.851 97.968 214.131 98.2712C212.237 99.0688 210.361 99.5693 208.641 99.633C205.305 99.7566 202.952 98.2559 201.758 94.5247C200.205 89.6703 201.773 86.5349 205.428 84.5516C206.396 84.0259 207.442 83.6282 208.489 83.3434C208.803 83.258 209.097 83.1884 209.365 83.1332L209.554 83.0958L209.768 83.0576L209.817 83.0496L212.946 82.8762Z" fill="#473198"/>
<path fill-rule="evenodd" clip-rule="evenodd" d="M239.211 38.1562C242.449 37.4978 264.705 33.4219 269.326 52.1081C273.947 70.7944 273.695 92.0201 272.721 101.834C271.746 111.647 228.303 112.243 225.788 111.678C223.273 111.114 220.035 108.574 220.035 108.574L210.825 80.1375C210.825 80.1375 204.38 45.2419 239.211 38.1562Z" fill="white"/>
<path fill-rule="evenodd" clip-rule="evenodd" d="M244.566 36.4925C242.42 36.6425 240.611 36.9116 239.022 37.2346C230.682 38.9312 224.201 42.2821 219.416 47.0389C215.358 51.0715 212.634 55.9942 211.049 61.5465C209.822 65.8475 209.343 70.2765 209.419 74.591C209.444 76.0004 209.528 77.3046 209.651 78.4788L209.678 78.7285C209.721 79.1096 209.765 79.4529 209.809 79.756L209.856 80.0665C209.874 80.1749 209.887 80.2557 209.897 80.3079C209.905 80.3481 209.915 80.3878 209.927 80.4267L219.138 108.864C219.195 109.041 219.305 109.198 219.452 109.314L219.649 109.464L219.842 109.607C219.944 109.682 220.053 109.761 220.168 109.843C220.717 110.233 221.308 110.623 221.919 110.988C222.631 111.414 223.325 111.778 223.99 112.063C224.55 112.304 225.081 112.484 225.581 112.596C227.622 113.054 240.44 112.68 249.94 111.582L250.627 111.501C256.657 110.776 261.777 109.777 265.631 108.483L265.97 108.367C270.67 106.736 273.388 104.66 273.659 101.926C274.23 96.1814 274.42 88.2991 274.064 80.2567C273.619 70.2226 272.376 60.5139 270.241 51.883C268.102 43.2336 262.224 38.5189 253.925 36.9538C250.92 36.3872 247.758 36.2694 244.566 36.4925ZM253.574 38.8022C261.198 40.2399 266.464 44.4632 268.41 52.3334C270.512 60.8328 271.74 70.4214 272.179 80.3397C272.532 88.2945 272.344 96.0872 271.782 101.741C271.427 105.319 263.188 108.121 250.121 109.667L249.723 109.713C240.43 110.787 227.761 111.157 225.995 110.761C225.618 110.676 225.195 110.533 224.735 110.335C224.155 110.087 223.533 109.76 222.888 109.375C222.323 109.037 221.774 108.674 221.263 108.311L221.057 108.163L220.841 108.004L211.742 79.9112L211.702 79.663L211.693 79.6044C211.647 79.2943 211.599 78.9316 211.553 78.5201C211.421 77.3382 211.33 76.0071 211.305 74.5578C211.231 70.4168 211.691 66.1689 212.863 62.0615C214.364 56.8031 216.932 52.1631 220.747 48.3713C225.265 43.881 231.412 40.7027 239.399 39.0778C240.913 38.7701 242.643 38.5126 244.698 38.369C247.739 38.1564 250.744 38.2684 253.574 38.8022Z" fill="#473198"/>
<path fill-rule="evenodd" clip-rule="evenodd" d="M214.88 79.4165C217.206 81.2663 224.122 92.6473 226.133 98.1027C226.133 98.1027 239.368 91.7695 259.046 89.1358C259.046 89.1358 269.829 88.1012 274.261 88.885C274.261 88.885 275.613 108.888 268.068 120.206C260.524 131.525 241.757 130.835 232.42 125.662C223.053 120.489 221.292 117.698 218.526 111.302C215.76 104.906 207.649 80.8274 207.649 80.8274L214.88 79.4165Z" fill="#B9B6C2"/>
<path fill-rule="evenodd" clip-rule="evenodd" d="M209.724 84.3387C209.724 84.3387 202.871 75.8421 199.539 66.593C196.427 57.877 199.445 48.0322 207.178 43.0785C213.622 38.9399 218.998 40.9779 218.998 40.9779C218.998 40.9779 210.322 29.2833 219.972 16.9617C223.367 12.6037 228.428 9.84462 233.867 9.37433C247.195 8.21428 252.602 19.1564 252.602 19.1564C252.602 19.1564 263.856 -8.99836 294.788 3.2919C297.901 4.54601 301.736 8.55916 303.653 11.3495C315.316 28.2487 285.955 53.2368 269.609 56.8423C251.659 60.7928 240.688 58.9743 234.338 55.1493C238.991 57.344 237.199 85.436 209.724 84.3387Z" fill="#473198"/>
<path fill-rule="evenodd" clip-rule="evenodd" d="M256.565 75.4663C257.221 75.3163 257.874 75.7075 258.055 76.3458L258.071 76.4084L262.001 93.4956C262.151 94.1494 261.759 94.8011 261.12 94.9821L261.057 94.9982L255.996 96.1582C255.319 96.3134 254.644 95.8919 254.489 95.2169C254.338 94.5629 254.73 93.9109 255.37 93.7298L255.433 93.7137L259.269 92.8344L255.62 76.9691C255.47 76.3151 255.862 75.6632 256.502 75.4824L256.565 75.4663Z" fill="#473198"/>
<path fill-rule="evenodd" clip-rule="evenodd" d="M263.565 83.5634C264.531 83.4557 265.177 82.1408 265.007 80.6265C264.837 79.1121 263.916 77.9719 262.95 78.0796C261.984 78.1873 261.338 79.5023 261.508 81.0166C261.678 82.5309 262.599 83.6712 263.565 83.5634Z" fill="#473198"/>
<path fill-rule="evenodd" clip-rule="evenodd" d="M246.808 84.6611C247.775 84.5534 248.42 83.2384 248.251 81.7241C248.081 80.2098 247.16 79.0695 246.194 79.1773C245.228 79.285 244.582 80.5999 244.752 82.1142C244.921 83.6286 245.842 84.7688 246.808 84.6611Z" fill="#473198"/>
<path fill-rule="evenodd" clip-rule="evenodd" d="M247.328 71.0139C248.022 71.0003 248.596 71.5505 248.61 72.243C248.663 74.9615 246.959 76.7867 244.276 77.8381C243.415 78.1757 242.505 78.4119 241.598 78.5675L241.386 78.6025C240.94 78.6731 240.585 78.7101 240.356 78.7241C239.663 78.7665 239.067 78.2405 239.024 77.5492C238.983 76.8788 239.478 76.2992 240.14 76.226L240.31 76.2118C240.348 76.2082 240.394 76.2036 240.447 76.1978C240.664 76.1743 240.908 76.1408 241.172 76.0956C241.922 75.9669 242.67 75.7726 243.357 75.5037C245.127 74.8097 246.084 73.81 246.096 72.3841L246.095 72.2925C246.082 71.6 246.633 71.0276 247.328 71.0139Z" fill="#473198"/>
<path fill-rule="evenodd" clip-rule="evenodd" d="M261.36 63.964C262.439 63.6993 263.559 63.6132 264.649 63.823C266.351 64.1508 267.71 65.1719 268.47 66.9467C268.743 67.5836 268.447 68.3206 267.808 68.5928C267.17 68.865 266.431 68.5694 266.158 67.9325C265.738 66.9536 265.083 66.4611 264.172 66.2857C263.491 66.1546 262.717 66.2142 261.961 66.3996C261.83 66.4318 261.709 66.4656 261.6 66.4994L261.487 66.5356L261.393 66.5688C260.747 66.8223 260.017 66.5053 259.762 65.8607C259.508 65.2162 259.826 64.4881 260.472 64.2346C260.662 64.1604 260.966 64.0608 261.36 63.964Z" fill="#473198"/>
<path fill-rule="evenodd" clip-rule="evenodd" d="M255.09 101.632C252.72 102.105 250.191 102.234 247.68 102.117C245.5 102.03 243.626 103.562 244.492 105.347C245.781 108.066 248.501 109.601 252.837 109.101C257.134 108.599 259.117 106.655 259.11 103.977L259.109 103.885C259.11 102.255 257.072 101.28 255.178 101.616L255.09 101.632ZM256.852 103.622C257.009 103.695 257.124 103.78 257.189 103.857L257.224 103.903C257.257 105.621 256.049 106.832 252.619 107.233C249.145 107.633 247.2 106.57 246.236 104.622L246.194 104.535C246.169 104.484 246.179 104.452 246.32 104.336C246.588 104.117 247.063 103.975 247.598 103.996C250.245 104.12 252.922 103.983 255.46 103.477C255.944 103.38 256.464 103.442 256.852 103.622Z" fill="#473198"/>
<rect width="96.6332" height="22.7624" transform="matrix(-0.999989 0.00473792 -0.00476289 -0.999989 361.549 246.048)" fill="#473198"/>
<rect width="42.4383" height="12.2277" transform="matrix(-0.999989 0.00473791 -0.00476292 -0.999989 360.055 240.257)" fill="white"/>
<rect width="3.961" height="12.2277" transform="matrix(-0.999989 0.00473779 -0.00476304 -0.999989 315.838 240.46)" fill="#E6B40B"/>
<path fill-rule="evenodd" clip-rule="evenodd" d="M286.427 229.596C283.528 229.596 281.178 231.94 281.178 234.832C281.178 237.723 283.528 240.068 286.427 240.068C289.327 240.068 291.677 237.723 291.677 234.832C291.677 231.94 289.327 229.596 286.427 229.596ZM286.427 231.477C288.285 231.477 289.791 232.979 289.791 234.832C289.791 236.684 288.285 238.186 286.427 238.186C284.57 238.186 283.064 236.684 283.064 234.832C283.064 232.979 284.57 231.477 286.427 231.477Z" fill="white"/>
<path fill-rule="evenodd" clip-rule="evenodd" d="M349.889 228.875C350.391 228.871 350.805 229.26 350.837 229.754L350.839 229.809L350.902 238.901C350.905 239.421 350.486 239.845 349.965 239.848C349.463 239.852 349.05 239.463 349.018 238.969L349.016 238.914L348.953 229.822C348.949 229.302 349.368 228.878 349.889 228.875Z" fill="#E6B40B"/>
<path fill-rule="evenodd" clip-rule="evenodd" d="M345.239 228.906C345.741 228.904 346.153 229.294 346.184 229.788L346.186 229.843L346.217 238.904C346.219 239.424 345.798 239.846 345.277 239.848C344.775 239.85 344.363 239.46 344.333 238.966L344.331 238.911L344.299 229.85C344.298 229.33 344.718 228.908 345.239 228.906Z" fill="#E6B40B"/>
<path fill-rule="evenodd" clip-rule="evenodd" d="M340.556 228.937C341.058 228.936 341.47 229.326 341.501 229.819L341.502 229.875L341.534 238.935C341.536 239.455 341.115 239.878 340.594 239.879C340.092 239.881 339.68 239.491 339.649 238.997L339.648 238.942L339.616 229.881C339.614 229.362 340.035 228.939 340.556 228.937Z" fill="#E6B40B"/>
<rect x="372.734" y="224.636" width="91.1625" height="23.9221" transform="rotate(-180 372.734 224.636)" fill="#473198"/>
<rect x="364.962" y="217.595" width="42.4377" height="12.2275" transform="rotate(-180 364.962 217.595)" fill="white"/>
<rect x="320.745" y="217.595" width="3.96094" height="12.2275" transform="rotate(-180 320.745 217.595)" fill="#E6B40B"/>
<path fill-rule="evenodd" clip-rule="evenodd" d="M297.241 206.019C294.342 206.019 291.991 208.363 291.991 211.254C291.991 214.146 294.342 216.49 297.241 216.49C300.14 216.49 302.491 214.146 302.491 211.254C302.491 208.363 300.14 206.019 297.241 206.019ZM297.241 207.9C299.099 207.9 300.604 209.402 300.604 211.254C300.604 213.107 299.099 214.609 297.241 214.609C295.383 214.609 293.877 213.107 293.877 211.254C293.877 209.402 295.383 207.9 297.241 207.9Z" fill="white"/>
<path fill-rule="evenodd" clip-rule="evenodd" d="M335.435 206.05C335.937 206.05 336.348 206.441 336.377 206.935L336.378 206.99V216.051C336.378 216.571 335.956 216.992 335.435 216.992C334.933 216.992 334.522 216.6 334.494 216.107L334.492 216.051V206.99C334.492 206.471 334.914 206.05 335.435 206.05Z" fill="#E6B40B"/>
<path fill-rule="evenodd" clip-rule="evenodd" d="M359.546 206.05C360.048 206.05 360.458 206.441 360.487 206.935L360.489 206.99V216.051C360.489 216.571 360.066 216.992 359.546 216.992C359.043 216.992 358.633 216.6 358.604 216.107L358.603 216.051V206.99C358.603 206.471 359.025 206.05 359.546 206.05Z" fill="#E6B40B"/>
<path fill-rule="evenodd" clip-rule="evenodd" d="M330.751 206.05C331.253 206.05 331.663 206.441 331.692 206.935L331.694 206.99V216.051C331.694 216.571 331.272 216.992 330.751 216.992C330.248 216.992 329.838 216.6 329.809 216.107L329.808 216.051V206.99C329.808 206.471 330.23 206.05 330.751 206.05Z" fill="#E6B40B"/>
<path fill-rule="evenodd" clip-rule="evenodd" d="M326.099 206.05C326.601 206.05 327.012 206.441 327.04 206.935L327.042 206.99V216.051C327.042 216.571 326.62 216.992 326.099 216.992C325.597 216.992 325.186 216.6 325.157 216.107L325.156 216.051V206.99C325.156 206.471 325.578 206.05 326.099 206.05Z" fill="#E6B40B"/>
<rect x="355.491" y="167.549" width="112.884" height="79.4164" fill="#473198"/>
<path fill-rule="evenodd" clip-rule="evenodd" d="M419.776 166.796V247.436H417.89V166.796H419.776Z" fill="white"/>
<path fill-rule="evenodd" clip-rule="evenodd" d="M454.733 175.387C455.253 175.387 455.676 175.808 455.676 176.328C455.676 176.828 455.283 177.238 454.788 177.267L454.733 177.268H403.65C403.129 177.268 402.707 176.847 402.707 176.328C402.707 175.827 403.1 175.417 403.595 175.389L403.65 175.387H454.733Z" fill="white"/>
<path fill-rule="evenodd" clip-rule="evenodd" d="M467.369 203.918C467.89 203.918 468.313 204.339 468.313 204.859C468.313 205.359 467.92 205.769 467.425 205.797L467.369 205.799H434.551C434.03 205.799 433.608 205.378 433.608 204.859C433.608 204.358 434.001 203.948 434.496 203.92L434.551 203.918H467.369Z" fill="white"/>
<path fill-rule="evenodd" clip-rule="evenodd" d="M462.528 230.536C463.049 230.536 463.471 230.957 463.471 231.477C463.471 231.978 463.079 232.387 462.583 232.416L462.528 232.418H398.526C398.005 232.418 397.583 231.996 397.583 231.477C397.583 230.976 397.975 230.567 398.47 230.538L398.526 230.536H462.528Z" fill="white"/>
<path fill-rule="evenodd" clip-rule="evenodd" d="M407.485 196.801C408.006 196.801 408.428 197.222 408.428 197.741C408.428 198.242 408.036 198.652 407.541 198.68L407.485 198.682H374.415C373.894 198.682 373.472 198.261 373.472 197.741C373.472 197.24 373.865 196.831 374.36 196.802L374.415 196.801H407.485Z" fill="white"/>
<path fill-rule="evenodd" clip-rule="evenodd" d="M375.672 184.323C376.193 184.323 376.615 184.744 376.615 185.263C376.615 185.764 376.223 186.173 375.728 186.202L375.672 186.204H355.616C355.096 186.204 354.673 185.783 354.673 185.263C354.673 184.762 355.066 184.353 355.561 184.324L355.616 184.323H375.672Z" fill="white"/>
<path fill-rule="evenodd" clip-rule="evenodd" d="M394.722 221.005C395.243 221.005 395.665 221.426 395.665 221.946C395.665 222.447 395.273 222.856 394.778 222.885L394.722 222.886H355.491C354.97 222.886 354.548 222.465 354.548 221.946C354.548 221.445 354.94 221.035 355.436 221.007L355.491 221.005H394.722Z" fill="white"/>
<path fill-rule="evenodd" clip-rule="evenodd" d="M355.334 185.388C346.909 188.712 355.585 194.23 355.585 194.23C355.585 194.23 357.754 187.959 368.883 185.388C367.437 185.388 355.334 185.388 355.334 185.388Z" fill="#473198"/>
<path fill-rule="evenodd" clip-rule="evenodd" d="M368.882 184.448H355.334C355.215 184.448 355.097 184.47 354.987 184.514C352.491 185.499 351.093 186.797 350.777 188.399C350.442 190.095 351.337 191.742 352.961 193.322C353.423 193.771 353.914 194.183 354.405 194.55L354.548 194.656C354.777 194.824 354.96 194.948 355.078 195.023C355.576 195.34 356.235 195.126 356.457 194.59L356.491 194.499C356.513 194.444 356.555 194.349 356.619 194.218C356.766 193.919 356.964 193.581 357.217 193.212C357.958 192.136 359.003 191.05 360.405 190.029C362.605 188.426 365.471 187.142 369.095 186.305C370.188 186.052 370.004 184.448 368.882 184.448ZM363.072 186.329L363.013 186.355C361.625 186.99 360.388 187.712 359.292 188.51C357.715 189.659 356.522 190.899 355.662 192.148L355.563 192.295C355.465 192.441 355.375 192.584 355.291 192.724L355.237 192.814L355.169 192.76C354.863 192.515 354.563 192.252 354.278 191.975C353.067 190.797 352.45 189.662 352.627 188.763L352.64 188.706C352.831 187.895 353.685 187.093 355.431 186.364L355.517 186.329H363.072Z" fill="white"/>
<path fill-rule="evenodd" clip-rule="evenodd" d="M468.721 204.733C477.146 208.057 468.47 213.575 468.47 213.575C468.47 213.575 466.3 207.304 455.172 204.733C456.65 204.765 468.721 204.733 468.721 204.733Z" fill="#473198"/>
<path fill-rule="evenodd" clip-rule="evenodd" d="M468.719 203.793L462.311 203.805L456.066 203.801C455.649 203.799 455.354 203.796 455.193 203.793C454.059 203.769 453.855 205.394 454.96 205.649C458.584 206.487 461.45 207.77 463.651 209.373C465.053 210.395 466.097 211.48 466.838 212.557C467.092 212.925 467.289 213.264 467.436 213.563L467.486 213.666C467.53 213.76 467.558 213.828 467.572 213.865L467.578 213.881C467.777 214.456 468.463 214.695 468.977 214.368L469.1 214.287C469.24 214.193 469.428 214.061 469.65 213.895C470.141 213.527 470.633 213.116 471.094 212.667C472.718 211.087 473.613 209.44 473.278 207.744C472.962 206.142 471.564 204.843 469.068 203.858C468.957 203.815 468.838 203.792 468.719 203.793ZM468.539 205.674L468.623 205.709C470.41 206.455 471.263 207.277 471.427 208.107C471.605 209.006 470.988 210.142 469.777 211.32L469.604 211.484C469.372 211.701 469.13 211.909 468.886 212.105L468.817 212.159L468.764 212.068C468.652 211.882 468.528 211.69 468.392 211.492C467.533 210.243 466.34 209.003 464.762 207.854L464.597 207.735C463.613 207.034 462.517 206.394 461.303 205.822L461.013 205.687L468.539 205.674Z" fill="white"/>
<path fill-rule="evenodd" clip-rule="evenodd" d="M385.134 222.009C385.134 222.009 365.582 225.677 366.053 237.183C366.053 237.183 350.367 231.446 355.648 222.009H385.134Z" fill="#473198"/>
<path fill-rule="evenodd" clip-rule="evenodd" d="M385.135 221.068H355.648C355.307 221.068 354.992 221.252 354.825 221.55C353.266 224.336 353.255 227.055 354.568 229.583C355.607 231.586 357.419 233.374 359.779 234.969C361.08 235.849 362.468 236.615 363.857 237.266C364.282 237.466 364.681 237.642 365.046 237.795L365.201 237.859C365.448 237.96 365.628 238.029 365.729 238.066C366.36 238.297 367.023 237.814 366.996 237.145C366.807 232.526 370.162 228.85 375.999 226.045C378.034 225.067 380.222 224.272 382.411 223.647C383.093 223.453 383.73 223.288 384.311 223.151L384.739 223.053C384.807 223.037 384.872 223.023 384.935 223.01L385.309 222.933C386.435 222.722 386.28 221.068 385.135 221.068ZM378.494 222.949L378.284 223.027C377.228 223.426 376.188 223.866 375.181 224.35L374.988 224.443C369.298 227.22 365.669 230.895 365.163 235.607L365.145 235.787L364.996 235.719C364.886 235.669 364.774 235.618 364.659 235.564C363.354 234.952 362.05 234.232 360.837 233.412L360.695 233.315C356.263 230.275 354.395 226.876 356.163 223.071L356.22 222.949H378.494Z" fill="white"/>
<path fill-rule="evenodd" clip-rule="evenodd" d="M531.718 245.617C532.412 245.617 532.975 246.179 532.975 246.871C532.975 247.543 532.446 248.091 531.78 248.124L531.718 248.125H2.03183C1.33738 248.125 0.774414 247.564 0.774414 246.871C0.774414 246.2 1.30378 245.651 1.96907 245.619L2.03183 245.617H531.718Z" fill="#473198"/>
</svg>
