<svg width="25" height="24" viewBox="0 0 25 24" fill="none" xmlns="http://www.w3.org/2000/svg">
<g clip-path="url(#clip0_653:3878)">
<path d="M23.0094 24.0001C23.7408 24.0001 24.334 23.407 24.334 22.6755V1.32459C24.334 0.592969 23.7408 0 23.0094 0H1.65858C0.926859 0 0.333984 0.592969 0.333984 1.32459V22.6755C0.333984 23.407 0.926859 24.0001 1.65858 24.0001H23.0094Z" fill="#395185"/>
<path d="M16.8934 24V14.7059H20.0131L20.4802 11.0839H16.8934V8.77125C16.8934 7.72257 17.1847 7.00791 18.6885 7.00791L20.6066 7.00707V3.76754C20.2747 3.72338 19.1362 3.62476 17.8117 3.62476C15.0463 3.62476 13.1531 5.31272 13.1531 8.41266V11.0839H10.0254V14.7059H13.1531V24H16.8934Z" fill="white"/>
</g>
<defs>
<clipPath id="clip0_653:3878">
<rect width="24" height="24" fill="white" transform="translate(0.333984)"/>
</clipPath>
</defs>
</svg>
