<svg width="25" height="24" viewBox="0 0 25 24" fill="none" xmlns="http://www.w3.org/2000/svg">
<g clip-path="url(#clip0_653:3883)">
<path d="M5.93225 9.765C6.40013 8.34945 7.30311 7.11781 8.51237 6.2458C9.72162 5.37378 11.1754 4.90594 12.6663 4.909C14.3563 4.909 15.8842 5.509 17.0842 6.491L20.5763 3C18.4482 1.145 15.7213 0 12.6663 0C7.93625 0 3.86425 2.698 1.90625 6.65L5.93225 9.765Z" fill="#EA4335"/>
<path d="M16.7053 18.0131C15.6153 18.7161 14.2313 19.0911 12.6653 19.0911C11.1804 19.0941 9.73215 18.63 8.52558 17.7644C7.31901 16.8988 6.41529 15.6757 5.94234 14.2681L1.90234 17.3351C2.89359 19.3414 4.42761 21.0295 6.33017 22.2076C8.23272 23.3858 10.4275 24.0068 12.6653 24.0001C15.5983 24.0001 18.4003 22.9571 20.4993 21.0001L16.7063 18.0131H16.7053Z" fill="#34A853"/>
<path d="M20.5 21.0001C22.695 18.9521 24.12 15.9041 24.12 12.0001C24.12 11.2901 24.011 10.5271 23.848 9.81812H12.666V14.4551H19.102C18.785 16.0141 17.932 17.2211 16.707 18.0131L20.5 21.0001Z" fill="#4A90E2"/>
<path d="M5.94313 14.2679C5.69849 13.5368 5.5742 12.7708 5.57513 11.9999C5.57513 11.2179 5.70013 10.4669 5.93213 9.7649L1.90613 6.6499C1.08251 8.31259 0.657936 10.1444 0.666132 11.9999C0.666132 13.9199 1.11113 15.7299 1.90313 17.3349L5.94313 14.2679Z" fill="#FBBC05"/>
</g>
<defs>
<clipPath id="clip0_653:3883">
<rect width="24" height="24" fill="white" transform="translate(0.666016)"/>
</clipPath>
</defs>
</svg>
