<svg xmlns="http://www.w3.org/2000/svg" viewBox="0 0 190.63 124.63"><defs><style>.cls-1{fill:#b5d1db;}.cls-2{fill:#fff;}.cls-3{fill:#d6e2ea;}.cls-4{fill:none;stroke:#fff;stroke-miterlimit:10;stroke-width:2px;stroke-dasharray:5;}</style></defs><g id="OBJECTS"><path class="cls-1" d="M122.54,48.13l8.15,24.94a2.64,2.64,0,0,0,4.2,1.22l24.35-20.1s-25.88-10.09-25.88-9.54S122.54,48.13,122.54,48.13Z"/><path class="cls-2" d="M186.78.2c-15.9,6.29-67.23,27.32-86.66,35.29a3,3,0,0,0,.23,5.58l22.19,7.06L130.66,73a2.7,2.7,0,0,0,2.08,1.82c.74.14,1.85-20.13,1.85-20.13S157.91,72,169,80.14a4.61,4.61,0,0,0,7.26-2.83c3.29-17,11.53-59.44,14.35-73.95A2.82,2.82,0,0,0,186.78.2Z"/><path class="cls-3" d="M132.74,74.81c.74.14,1.85-20.13,1.85-20.13l38.31-36a.3.3,0,0,0-.36-.47l-50,29.9L130.66,73A2.7,2.7,0,0,0,132.74,74.81Z"/><path class="cls-4" d="M0,123.63c26.32-.08,61.29-14.92,68.31-43.41,2.84-11.5.32-23.82-8.79-32.21C48,37.41,35.36,47.1,38.47,61.9c5.11,24.31,34.8,42.32,57.37,42.57,13,.15,25.28-6.11,30-18.89"/></g></svg>